
<svg width="633px" height="87px" viewBox="123 97 633 87" version="1.1" xmlns="http://www.w3.org/2000/svg" xmlns:xlink="http://www.w3.org/1999/xlink">
    <path d="M125.234375,142.1875 C124.109369,139.656237 123.546875,136.679705 123.546875,133.257812 C123.546875,129.83592 124.097651,126.800794 125.199219,124.152344 C126.300787,121.503893 127.81249,119.21876 129.734375,117.296875 C133.81252,113.31248 138.921844,111.320312 145.0625,111.320312 C151.484407,111.320312 156.781229,112.79686 160.953125,115.75 C165.640648,119.125017 167.984375,123.953094 167.984375,130.234375 C167.984375,138.015664 166.191424,143.757794 162.605469,147.460938 C159.019513,151.164081 153.429725,153.015625 145.835938,153.015625 C135.28901,153.015625 128.421891,149.406286 125.234375,142.1875 Z M129.3125,131.851562 C129.3125,142.914118 134.890569,148.445312 146.046875,148.445312 C151.531277,148.445312 155.984358,146.804704 159.40625,143.523438 C162.828142,140.289046 164.539062,136.046901 164.539062,130.796875 C164.539062,125.874975 162.50002,122.125013 158.421875,119.546875 C154.953108,117.296864 150.570339,116.171875 145.273438,116.171875 C141.054666,116.171875 137.328141,117.695297 134.09375,120.742188 C130.906234,123.789078 129.3125,127.492166 129.3125,131.851562 Z M171.78125,144.648438 C171.78125,143.898434 171.722657,142.855475 171.605469,141.519531 C171.488281,140.183587 171.382813,138.718758 171.289062,137.125 C171.195312,135.531242 171.148438,133.914071 171.148438,132.273438 C171.148438,130.632804 171.289061,129.132819 171.570312,127.773438 C172.179691,124.726547 173.445303,123.203125 175.367188,123.203125 C176.679694,123.578127 177.558592,124.046872 178.003906,124.609375 C178.449221,125.171878 178.671875,125.863277 178.671875,126.683594 C178.671875,127.50391 178.46094,128.523431 178.039062,129.742188 C176.49218,133.820333 175.71875,137.499984 175.71875,140.78125 C175.71875,141.85938 175.789062,143.007806 175.929688,144.226562 C176.679691,147.367203 179.25779,148.9375 183.664062,148.9375 C185.960949,148.9375 188.140615,148.539066 190.203125,147.742188 C194.140645,146.289055 196.812493,144.578135 198.21875,142.609375 C198.640627,140.453114 198.851562,138.566414 198.851562,136.949219 C198.851562,135.332023 198.792969,133.890631 198.675781,132.625 C198.558593,131.359369 198.41797,129.964851 198.253906,128.441406 C198.089843,126.917961 197.984375,125.242197 197.9375,123.414062 C198.546878,123.132811 199.144528,122.992188 199.730469,122.992188 C200.316409,122.992188 200.925778,123.296872 201.558594,123.90625 C202.191409,124.515628 202.730467,125.664054 203.175781,127.351562 C203.621096,129.039071 203.914062,131.01952 204.054688,133.292969 C204.195313,135.566418 204.277344,137.921863 204.300781,140.359375 C204.324219,142.796887 204.335938,145.152332 204.335938,147.425781 C204.335938,149.69923 204.429687,151.656242 204.617188,153.296875 C204.054685,153.812503 203.515628,154.070312 203,154.070312 C201.124991,154.070312 199.742192,152.195331 198.851562,148.445312 C198.242184,148.96094 197.210945,149.593746 195.757812,150.34375 C192.664047,152.031258 189.007834,153.156247 184.789062,153.71875 C183.992184,153.8125 183.101567,153.859375 182.117188,153.859375 C181.132808,153.859375 179.902351,153.671877 178.425781,153.296875 C176.949211,152.921873 175.554694,152.054694 174.242188,150.695312 C172.929681,149.335931 172.109377,147.320326 171.78125,144.648438 Z M243.21875,128.335938 C241.24999,126.92968 238.718765,126.226562 235.625,126.226562 C232.718735,126.226562 230.02345,126.76562 227.539062,127.84375 C222.851539,129.81251 219.640634,132.343735 217.90625,135.4375 C217.156246,136.843757 216.78125,138.343742 216.78125,139.9375 L216.78125,142.292969 C216.78125,143.582038 217.015623,145.316395 217.484375,147.496094 C217.953127,149.675792 218.1875,151.890614 218.1875,154.140625 C217.20312,154.1875 216.406253,154.304687 215.796875,154.492188 C215.187497,154.679688 214.671877,154.773438 214.25,154.773438 C213.828123,154.773438 213.464845,154.585939 213.160156,154.210938 C212.855467,153.835936 212.515627,153.10938 212.140625,152.03125 C212.09375,151.749999 212.000001,150.953132 211.859375,149.640625 C211.718749,148.328118 211.54297,146.734384 211.332031,144.859375 C211.121093,142.984366 210.88672,140.933605 210.628906,138.707031 C210.371092,136.480458 210.125001,134.289073 209.890625,132.132812 C209.374997,127.445289 208.976564,124.000011 208.695312,121.796875 C208.695312,120.671869 209.515617,120.109375 211.15625,120.109375 C212.14063,120.109375 212.91406,120.519527 213.476562,121.339844 C214.039065,122.16016 214.484373,123.097651 214.8125,124.152344 C215.140627,125.207037 215.363281,126.249995 215.480469,127.28125 C215.597657,128.312505 215.703125,129.03906 215.796875,129.460938 C221.984406,123.92966 229.671829,121.164062 238.859375,121.164062 C239.89063,121.164062 240.968744,121.1875 242.09375,121.234375 C242.375001,121.1875 242.72656,121.164062 243.148438,121.164062 C243.570315,121.164062 243.992185,121.44531 244.414062,122.007812 C244.92969,122.664066 245.1875,123.460933 245.1875,124.398438 C245.1875,126.742199 244.531257,128.054686 243.21875,128.335938 Z M281.960938,142.328125 C279.335924,141.953123 278.023438,141.343754 278.023438,140.5 C278.023438,139.890622 278.468746,139.187504 279.359375,138.390625 C280.250004,137.593746 281.140621,136.773442 282.03125,135.929688 C282.03125,133.117173 281.609379,129.964861 280.765625,126.472656 C279.921871,122.980451 279.312502,120.273447 278.9375,118.351562 C278.562498,116.429678 278.375,114.671883 278.375,113.078125 C278.375,111.484367 278.621091,110.476565 279.113281,110.054688 C279.605471,109.63281 280.320308,109.421875 281.257812,109.421875 C282.195317,109.421875 282.804686,109.55078 283.085938,109.808594 C283.367189,110.066408 283.554687,110.382811 283.648438,110.757812 C283.742188,111.132814 283.800781,111.531248 283.824219,111.953125 C283.847656,112.375002 283.929687,112.773436 284.070312,113.148438 C284.304689,114.039067 285.031244,114.484375 286.25,114.484375 C289.390641,114.4375 292.531234,114.167971 295.671875,113.675781 C298.812516,113.183591 301.929672,112.67969 305.023438,112.164062 C311.210968,111.132807 315.558581,110.617188 318.066406,110.617188 C320.574231,110.617188 322.55468,110.687499 324.007812,110.828125 C324.054688,111.718754 324.148437,112.492184 324.289062,113.148438 C324.429688,113.804691 324.5,114.343748 324.5,114.765625 C324.5,115.562504 323.72657,115.843751 322.179688,115.609375 C297.66394,116.500004 285.40625,118.328111 285.40625,121.09375 C285.40625,124.14064 285.617185,126.753895 286.039062,128.933594 C286.46094,131.113292 286.777343,132.484372 286.988281,133.046875 C287.19922,133.609378 287.445311,133.890625 287.726562,133.890625 C290.398451,133.890625 293.105455,133.656252 295.847656,133.1875 C298.589857,132.718748 301.332018,132.214846 304.074219,131.675781 C306.81642,131.136716 309.570299,130.632815 312.335938,130.164062 C315.101576,129.69531 317.820299,129.460938 320.492188,129.460938 C320.539063,129.460938 320.5625,129.636717 320.5625,129.988281 C320.5625,130.339846 320.539063,130.72656 320.492188,131.148438 C320.351562,132.273443 320.351562,132.835938 320.492188,132.835938 C318.476552,133.960943 314.820339,134.874996 309.523438,135.578125 C307.226551,135.906252 304.882824,136.210936 302.492188,136.492188 C300.101551,136.773439 297.898448,137.078123 295.882812,137.40625 C291.242164,138.062503 288.546879,138.929682 287.796875,140.007812 L287.023438,153.789062 C286.50781,154.30469 285.921878,154.5625 285.265625,154.5625 L282.664062,154.351562 L281.960938,154.351562 L281.960938,142.328125 Z M326.75,144.648438 C326.75,143.898434 326.691407,142.855475 326.574219,141.519531 C326.457031,140.183587 326.351563,138.718758 326.257812,137.125 C326.164062,135.531242 326.117188,133.914071 326.117188,132.273438 C326.117188,130.632804 326.257811,129.132819 326.539062,127.773438 C327.148441,124.726547 328.414053,123.203125 330.335938,123.203125 C331.648444,123.578127 332.527342,124.046872 332.972656,124.609375 C333.417971,125.171878 333.640625,125.863277 333.640625,126.683594 C333.640625,127.50391 333.42969,128.523431 333.007812,129.742188 C331.46093,133.820333 330.6875,137.499984 330.6875,140.78125 C330.6875,141.85938 330.757812,143.007806 330.898438,144.226562 C331.648441,147.367203 334.22654,148.9375 338.632812,148.9375 C340.929699,148.9375 343.109365,148.539066 345.171875,147.742188 C349.109395,146.289055 351.781243,144.578135 353.1875,142.609375 C353.609377,140.453114 353.820312,138.566414 353.820312,136.949219 C353.820312,135.332023 353.761719,133.890631 353.644531,132.625 C353.527343,131.359369 353.38672,129.964851 353.222656,128.441406 C353.058593,126.917961 352.953125,125.242197 352.90625,123.414062 C353.515628,123.132811 354.113278,122.992188 354.699219,122.992188 C355.285159,122.992188 355.894528,123.296872 356.527344,123.90625 C357.160159,124.515628 357.699217,125.664054 358.144531,127.351562 C358.589846,129.039071 358.882812,131.01952 359.023438,133.292969 C359.164063,135.566418 359.246094,137.921863 359.269531,140.359375 C359.292969,142.796887 359.304688,145.152332 359.304688,147.425781 C359.304688,149.69923 359.398437,151.656242 359.585938,153.296875 C359.023435,153.812503 358.484378,154.070312 357.96875,154.070312 C356.093741,154.070312 354.710942,152.195331 353.820312,148.445312 C353.210934,148.96094 352.179695,149.593746 350.726562,150.34375 C347.632797,152.031258 343.976584,153.156247 339.757812,153.71875 C338.960934,153.8125 338.070317,153.859375 337.085938,153.859375 C336.101558,153.859375 334.871101,153.671877 333.394531,153.296875 C331.917961,152.921873 330.523444,152.054694 329.210938,150.695312 C327.898431,149.335931 327.078127,147.320326 326.75,144.648438 Z M398.1875,128.335938 C396.21874,126.92968 393.687515,126.226562 390.59375,126.226562 C387.687485,126.226562 384.9922,126.76562 382.507812,127.84375 C377.820289,129.81251 374.609384,132.343735 372.875,135.4375 C372.124996,136.843757 371.75,138.343742 371.75,139.9375 L371.75,142.292969 C371.75,143.582038 371.984373,145.316395 372.453125,147.496094 C372.921877,149.675792 373.15625,151.890614 373.15625,154.140625 C372.17187,154.1875 371.375003,154.304687 370.765625,154.492188 C370.156247,154.679688 369.640627,154.773438 369.21875,154.773438 C368.796873,154.773438 368.433595,154.585939 368.128906,154.210938 C367.824217,153.835936 367.484377,153.10938 367.109375,152.03125 C367.0625,151.749999 366.968751,150.953132 366.828125,149.640625 C366.687499,148.328118 366.51172,146.734384 366.300781,144.859375 C366.089843,142.984366 365.85547,140.933605 365.597656,138.707031 C365.339842,136.480458 365.093751,134.289073 364.859375,132.132812 C364.343747,127.445289 363.945314,124.000011 363.664062,121.796875 C363.664062,120.671869 364.484367,120.109375 366.125,120.109375 C367.10938,120.109375 367.88281,120.519527 368.445312,121.339844 C369.007815,122.16016 369.453123,123.097651 369.78125,124.152344 C370.109377,125.207037 370.332031,126.249995 370.449219,127.28125 C370.566407,128.312505 370.671875,129.03906 370.765625,129.460938 C376.953156,123.92966 384.640579,121.164062 393.828125,121.164062 C394.85938,121.164062 395.937494,121.1875 397.0625,121.234375 C397.343751,121.1875 397.69531,121.164062 398.117188,121.164062 C398.539065,121.164062 398.960935,121.44531 399.382812,122.007812 C399.89844,122.664066 400.15625,123.460933 400.15625,124.398438 C400.15625,126.742199 399.500007,128.054686 398.1875,128.335938 Z M437.914062,128.335938 C435.945303,126.92968 433.414078,126.226562 430.320312,126.226562 C427.414048,126.226562 424.718762,126.76562 422.234375,127.84375 C417.546852,129.81251 414.335946,132.343735 412.601562,135.4375 C411.851559,136.843757 411.476562,138.343742 411.476562,139.9375 L411.476562,142.292969 C411.476562,143.582038 411.710935,145.316395 412.179688,147.496094 C412.64844,149.675792 412.882812,151.890614 412.882812,154.140625 C411.898433,154.1875 411.101566,154.304687 410.492188,154.492188 C409.882809,154.679688 409.36719,154.773438 408.945312,154.773438 C408.523435,154.773438 408.160158,154.585939 407.855469,154.210938 C407.55078,153.835936 407.210939,153.10938 406.835938,152.03125 C406.789062,151.749999 406.695313,150.953132 406.554688,149.640625 C406.414062,148.328118 406.238282,146.734384 406.027344,144.859375 C405.816405,142.984366 405.582033,140.933605 405.324219,138.707031 C405.066405,136.480458 404.820314,134.289073 404.585938,132.132812 C404.07031,127.445289 403.671876,124.000011 403.390625,121.796875 C403.390625,120.671869 404.210929,120.109375 405.851562,120.109375 C406.835942,120.109375 407.609372,120.519527 408.171875,121.339844 C408.734378,122.16016 409.179686,123.097651 409.507812,124.152344 C409.835939,125.207037 410.058593,126.249995 410.175781,127.28125 C410.292969,128.312505 410.398437,129.03906 410.492188,129.460938 C416.679718,123.92966 424.367142,121.164062 433.554688,121.164062 C434.585943,121.164062 435.664057,121.1875 436.789062,121.234375 C437.070314,121.1875 437.421873,121.164062 437.84375,121.164062 C438.265627,121.164062 438.687498,121.44531 439.109375,122.007812 C439.625003,122.664066 439.882812,123.460933 439.882812,124.398438 C439.882812,126.742199 439.226569,128.054686 437.914062,128.335938 Z M457.953125,180.507812 C456.968745,182.710949 455.796882,183.8125 454.4375,183.8125 C453.781247,183.8125 453.300783,183.519534 452.996094,182.933594 C452.691405,182.347653 452.679686,181.656254 452.960938,180.859375 C453.992193,176.499978 455.480459,171.531278 457.425781,165.953125 C459.371103,160.374972 460.671872,156.62501 461.328125,154.703125 C459.687492,153.062492 457.109393,149.781275 453.59375,144.859375 C446.374964,134.734324 442.765625,129.179692 442.765625,128.195312 C442.765625,128.148437 442.789062,128.101563 442.835938,128.054688 L445.507812,125.382812 C449.210956,128.804705 454.039033,134.617146 459.992188,142.820312 C461.492195,144.882823 462.687496,146.61718 463.578125,148.023438 C464.562505,146.054678 465.335935,144.355476 465.898438,142.925781 C466.46094,141.496087 466.917967,140.347661 467.269531,139.480469 C467.621096,138.613277 468.101559,137.453132 468.710938,136 C470.304695,132.109356 472.507798,127.164093 475.320312,121.164062 C475.74219,120.976562 476.187498,120.882812 476.65625,120.882812 C477.828131,120.882812 478.671872,121.187497 479.1875,121.796875 C479.375001,122.031251 479.46875,122.30078 479.46875,122.605469 C479.46875,122.910158 479.421875,123.203124 479.328125,123.484375 L457.953125,180.507812 Z M516.171875,142.328125 C513.546862,141.953123 512.234375,141.343754 512.234375,140.5 C512.234375,139.890622 512.679683,139.187504 513.570312,138.390625 C514.460942,137.593746 515.351558,136.773442 516.242188,135.929688 C516.242188,133.117173 515.820317,129.964861 514.976562,126.472656 C514.132808,122.980451 513.523439,120.273447 513.148438,118.351562 C512.773436,116.429678 512.585938,114.671883 512.585938,113.078125 C512.585938,111.484367 512.832029,110.476565 513.324219,110.054688 C513.816409,109.63281 514.531245,109.421875 515.46875,109.421875 C516.406255,109.421875 517.015624,109.55078 517.296875,109.808594 C517.578126,110.066408 517.765625,110.382811 517.859375,110.757812 C517.953125,111.132814 518.011719,111.531248 518.035156,111.953125 C518.058594,112.375002 518.140624,112.773436 518.28125,113.148438 C518.515626,114.039067 519.242181,114.484375 520.460938,114.484375 C523.601578,114.4375 526.742172,114.167971 529.882812,113.675781 C533.023453,113.183591 536.14061,112.67969 539.234375,112.164062 C545.421906,111.132807 549.769519,110.617188 552.277344,110.617188 C554.785169,110.617188 556.765618,110.687499 558.21875,110.828125 C558.265625,111.718754 558.359374,112.492184 558.5,113.148438 C558.640626,113.804691 558.710938,114.343748 558.710938,114.765625 C558.710938,115.562504 557.937508,115.843751 556.390625,115.609375 C531.874877,116.500004 519.617188,118.328111 519.617188,121.09375 C519.617188,124.14064 519.828123,126.753895 520.25,128.933594 C520.671877,131.113292 520.98828,132.484372 521.199219,133.046875 C521.410157,133.609378 521.656249,133.890625 521.9375,133.890625 C524.609388,133.890625 527.316393,133.656252 530.058594,133.1875 C532.800795,132.718748 535.542955,132.214846 538.285156,131.675781 C541.027357,131.136716 543.781236,130.632815 546.546875,130.164062 C549.312514,129.69531 552.031237,129.460938 554.703125,129.460938 C554.75,129.460938 554.773438,129.636717 554.773438,129.988281 C554.773438,130.339846 554.75,130.72656 554.703125,131.148438 C554.562499,132.273443 554.562499,132.835938 554.703125,132.835938 C552.68749,133.960943 549.031276,134.874996 543.734375,135.578125 C541.437489,135.906252 539.093762,136.210936 536.703125,136.492188 C534.312488,136.773439 532.109385,137.078123 530.09375,137.40625 C525.453102,138.062503 522.757816,138.929682 522.007812,140.007812 L521.234375,153.789062 C520.718747,154.30469 520.132816,154.5625 519.476562,154.5625 L516.875,154.351562 L516.171875,154.351562 L516.171875,142.328125 Z M595.835938,128.335938 C593.867178,126.92968 591.335953,126.226562 588.242188,126.226562 C585.335923,126.226562 582.640637,126.76562 580.15625,127.84375 C575.468727,129.81251 572.257821,132.343735 570.523438,135.4375 C569.773434,136.843757 569.398438,138.343742 569.398438,139.9375 L569.398438,142.292969 C569.398438,143.582038 569.63281,145.316395 570.101562,147.496094 C570.570315,149.675792 570.804688,151.890614 570.804688,154.140625 C569.820308,154.1875 569.023441,154.304687 568.414062,154.492188 C567.804684,154.679688 567.289065,154.773438 566.867188,154.773438 C566.44531,154.773438 566.082033,154.585939 565.777344,154.210938 C565.472655,153.835936 565.132814,153.10938 564.757812,152.03125 C564.710937,151.749999 564.617188,150.953132 564.476562,149.640625 C564.335937,148.328118 564.160157,146.734384 563.949219,144.859375 C563.73828,142.984366 563.503908,140.933605 563.246094,138.707031 C562.98828,136.480458 562.742189,134.289073 562.507812,132.132812 C561.992185,127.445289 561.593751,124.000011 561.3125,121.796875 C561.3125,120.671869 562.132804,120.109375 563.773438,120.109375 C564.757817,120.109375 565.531247,120.519527 566.09375,121.339844 C566.656253,122.16016 567.101561,123.097651 567.429688,124.152344 C567.757814,125.207037 567.980468,126.249995 568.097656,127.28125 C568.214844,128.312505 568.320312,129.03906 568.414062,129.460938 C574.601593,123.92966 582.289017,121.164062 591.476562,121.164062 C592.507818,121.164062 593.585932,121.1875 594.710938,121.234375 C594.992189,121.1875 595.343748,121.164062 595.765625,121.164062 C596.187502,121.164062 596.609373,121.44531 597.03125,122.007812 C597.546878,122.664066 597.804688,123.460933 597.804688,124.398438 C597.804688,126.742199 597.148444,128.054686 595.835938,128.335938 Z M607.367188,120.953125 C607.976566,129.718794 608.492185,139.86713 608.914062,151.398438 C608.632811,152.85157 607.507822,153.578125 605.539062,153.578125 C605.023435,153.578125 604.496096,153.472657 603.957031,153.261719 C603.417966,153.05078 603.078126,152.757814 602.9375,152.382812 L602.9375,120.953125 L607.367188,120.953125 Z M600.828125,111.390625 C600.828125,109.749992 601.789053,108.929688 603.710938,108.929688 C604.976569,108.929688 606.007809,109.210935 606.804688,109.773438 C606.945313,110.289065 607.015625,110.792966 607.015625,111.285156 C607.015625,111.777346 606.828127,112.25781 606.453125,112.726562 C606.078123,113.195315 605.515629,113.429688 604.765625,113.429688 C604.015621,113.429688 603.265629,113.253908 602.515625,112.902344 C601.765621,112.550779 601.203127,112.046878 600.828125,111.390625 Z M626.28125,149.078125 C630.406271,149.078125 636.617146,147.203144 644.914062,143.453125 C645.42969,143.453125 645.851561,143.628904 646.179688,143.980469 C646.507814,144.332033 646.671875,144.742185 646.671875,145.210938 C644.796866,148.398453 641.210964,150.882804 635.914062,152.664062 C630.617161,154.445321 625.671898,154.750006 621.078125,153.578125 C615.874974,152.218743 612.710943,149.289085 611.585938,144.789062 C611.492187,143.898433 611.445312,142.703132 611.445312,141.203125 C611.445312,139.703118 611.832027,137.722669 612.605469,135.261719 C613.37891,132.800769 614.703116,130.468761 616.578125,128.265625 C618.453134,126.062489 620.656237,124.328131 623.1875,123.0625 C625.718763,121.796869 628.414048,121.164062 631.273438,121.164062 C633.992201,121.164062 637.039046,122.101553 640.414062,123.976562 C642.00782,124.867192 643.273433,125.874994 644.210938,127 C645.148442,128.125006 645.617188,129.273432 645.617188,130.445312 C645.617188,130.773439 645.59375,131.101561 645.546875,131.429688 C645.453125,134.289077 644.070326,136.093746 641.398438,136.84375 C640.226557,137.171877 638.867195,137.335938 637.320312,137.335938 L627.195312,136.914062 C623.820296,136.914062 621.242196,137.640618 619.460938,139.09375 C618.429682,139.890629 617.703127,141.08593 617.28125,142.679688 C618.453131,146.945334 621.453101,149.078125 626.28125,149.078125 Z M638.832031,127.351562 C637.777338,126.601559 636.687506,126.062502 635.5625,125.734375 C634.437494,125.406248 633.500004,125.242188 632.75,125.242188 C631.999996,125.242188 630.781258,125.488279 629.09375,125.980469 C627.406242,126.472659 625.906257,127.023434 624.59375,127.632812 C621.359359,129.13282 619.742188,130.703117 619.742188,132.34375 C623.492206,132.671877 626.304678,132.835938 628.179688,132.835938 C633.382839,132.835938 636.898428,132.390629 638.726562,131.5 C639.851568,131.031248 640.414062,130.445316 640.414062,129.742188 C640.414062,128.898433 639.886724,128.101566 638.832031,127.351562 Z M678.3125,138.601562 C678.3125,133.02341 678.007816,128.921888 677.398438,126.296875 C677.773439,125.593746 677.210945,125.242188 675.710938,125.242188 C674.11718,125.242188 672.0547,125.640621 669.523438,126.4375 C666.992175,127.234379 664.929695,128.031246 663.335938,128.828125 C659.539044,130.656259 657.42969,132.437491 657.007812,134.171875 L657.007812,153.296875 L652.296875,153.296875 C651.687497,151.703117 651.382812,147.226599 651.382812,139.867188 C651.382812,133.304655 651.511717,128.476578 651.769531,125.382812 C652.027345,122.289047 652.226562,120.531252 652.367188,120.109375 C653.585944,119.312496 654.570309,118.914062 655.320312,118.914062 C656.492193,118.914062 657.078125,120.296861 657.078125,123.0625 C657.078125,124.14063 657.019532,125.183589 656.902344,126.191406 C656.785156,127.199224 656.726562,127.890623 656.726562,128.265625 C664.32035,122.687472 670.203104,119.898438 674.375,119.898438 C679.109399,119.898438 681.804684,123.718712 682.460938,131.359375 C682.742189,134.031263 682.882812,137.734351 682.882812,142.46875 L682.8125,148.023438 C682.8125,150.085948 682.859375,152.078115 682.953125,154 C682.484373,154.281251 682.109376,154.421875 681.828125,154.421875 C681.687499,154.375 681.382815,154.304688 680.914062,154.210938 C680.44531,154.117187 679.835941,154.046875 679.085938,154 C678.617185,152.124991 678.359375,150.214853 678.3125,148.269531 C678.265625,146.324209 678.242188,144.531258 678.242188,142.890625 L678.3125,138.601562 Z M720.148438,97.5390625 C720.148438,102.039085 720.019533,106.433572 719.761719,110.722656 C719.503905,115.01174 719.269532,119.207011 719.058594,123.308594 C718.847655,127.410177 718.742188,131.769508 718.742188,136.386719 C718.742188,141.003929 719.070309,145.890599 719.726562,151.046875 C719.726562,152.125005 719.527346,152.898435 719.128906,153.367188 C718.730467,153.83594 718.062505,154.070312 717.125,154.070312 C714.921864,154.070312 713.820312,152.242206 713.820312,148.585938 L713.820312,146.265625 C707.164029,151.2344 701.539085,153.71875 696.945312,153.71875 C695.117178,153.71875 693.253916,153.273442 691.355469,152.382812 C689.457022,151.492183 687.664071,149.687514 685.976562,146.96875 C685.742186,145.843744 685.625,144.695318 685.625,143.523438 C685.625,142.351557 685.847654,140.933602 686.292969,139.269531 C686.738283,137.60546 687.652337,135.882821 689.035156,134.101562 C690.417976,132.320304 692.09374,130.750007 694.0625,129.390625 C698.375022,126.48436 703.039037,125.03125 708.054688,125.03125 C710.210948,125.03125 712.273428,125.359372 714.242188,126.015625 C714.242188,125.171871 714.300781,123.695323 714.417969,121.585938 C714.535157,119.476552 714.664062,117.250012 714.804688,114.90625 C715.085939,108.81247 715.273437,105.214849 715.367188,104.113281 C715.460938,103.011713 715.589843,102.074223 715.753906,101.300781 C715.91797,100.52734 716.164061,99.8593778 716.492188,99.296875 C717.195316,98.1249941 718.414054,97.5390625 720.148438,97.5390625 Z M690.757812,142.960938 C690.757812,146.664081 692.093737,148.515625 694.765625,148.515625 C695.187502,148.515625 695.656247,148.46875 696.171875,148.375 C698.09376,148.375 700.460923,147.812506 703.273438,146.6875 C708.617214,144.578114 711.874994,142.750008 713.046875,141.203125 L713.046875,131.851562 C713.046875,130.210929 711.710951,129.390625 709.039062,129.390625 C708.710936,129.34375 708.277346,129.320312 707.738281,129.320312 C707.199216,129.320312 706.367193,129.437499 705.242188,129.671875 C704.117182,129.906251 702.85157,130.328122 701.445312,130.9375 C700.039055,131.546878 698.656257,132.296871 697.296875,133.1875 C694.437486,135.109385 692.468755,137.359362 691.390625,139.9375 C690.968748,140.92188 690.757812,141.929682 690.757812,142.960938 Z M747.851562,135.859375 C753.007838,135.859375 755.585938,137.171862 755.585938,139.796875 C755.585938,141.765635 754.156264,144.062487 751.296875,146.6875 C747.031229,150.578144 741.289099,153.695301 734.070312,156.039062 C733.742186,156.039062 733.378908,155.710941 732.980469,155.054688 C732.582029,154.398434 732.277345,153.894533 732.066406,153.542969 C731.855468,153.191404 731.703125,152.96875 731.609375,152.875 C737.000027,151.093741 741.42967,148.937513 744.898438,146.40625 C747.242199,144.718742 748.414062,143.335943 748.414062,142.257812 C748.414062,141.179682 747.031264,140.640625 744.265625,140.640625 C741.499986,140.640625 737.445339,141.296868 732.101562,142.609375 C729.66405,142.515625 727.554696,141.648446 725.773438,140.007812 C724.226555,138.55468 723.453125,137.089851 723.453125,135.613281 C723.453125,134.136711 723.874996,132.77735 724.71875,131.535156 C725.562504,130.292963 726.687493,129.132818 728.09375,128.054688 C729.500007,126.976557 731.140616,125.992192 733.015625,125.101562 C737.609398,122.898426 742.367163,121.796875 747.289062,121.796875 C748.742195,121.796875 750.148431,121.937499 751.507812,122.21875 C752.632818,122.21875 753.289062,122.710933 753.476562,123.695312 C753.664063,124.679692 753.757812,126.296864 753.757812,128.546875 C750.992174,127.281244 747.875017,126.648438 744.40625,126.648438 C740.093728,126.648438 736.531264,127.515616 733.71875,129.25 C730.812485,130.937508 729.3125,133.140611 729.21875,135.859375 C729.21875,137.171882 730.179678,137.828125 732.101562,137.828125 L737.234375,137.265625 C741.640647,136.32812 745.179674,135.859375 747.851562,135.859375 Z" id="Our-Furry-Friends" stroke="none" fill="#000000" fill-rule="evenodd"></path>
</svg>